<svg id="svg" version="1.1" xmlns="http://www.w3.org/2000/svg" xmlns:xlink="http://www.w3.org/1999/xlink" width="400" height="261.582459485224" viewBox="0, 0, 400,261.582459485224"><g id="svgg"><path id="path0" d="M191.006 25.659 C 109.566 29.078,45.211 75.586,45.149 131.066 C 45.069 201.273,143.529 251.142,243.689 231.625 C 310.208 218.664,356.437 177.003,356.437 130.020 C 356.437 69.274,281.289 21.868,191.006 25.659 M202.354 35.319 C 202.642 35.443,203.553 35.619,204.378 35.711 C 205.203 35.802,205.935 35.970,206.005 36.083 C 206.075 36.196,206.842 36.440,207.710 36.624 C 208.577 36.808,209.287 37.051,209.287 37.163 C 209.287 37.276,209.648 37.448,210.090 37.545 C 210.531 37.642,211.208 37.886,211.594 38.087 C 211.980 38.289,212.554 38.454,212.869 38.455 C 213.184 38.456,213.508 38.564,213.590 38.695 C 213.671 38.827,214.207 39.014,214.782 39.111 C 215.357 39.208,215.827 39.385,215.827 39.505 C 215.827 39.625,216.181 39.801,216.612 39.895 C 217.044 39.990,217.397 40.150,217.397 40.251 C 217.397 40.352,217.721 40.574,218.116 40.744 C 218.962 41.108,219.536 41.467,220.835 42.446 C 221.359 42.842,221.877 43.165,221.986 43.165 C 222.094 43.165,222.686 43.578,223.300 44.081 C 223.915 44.585,224.521 44.997,224.648 44.997 C 224.984 44.997,226.653 46.842,227.062 47.666 C 227.412 48.370,228.737 49.182,229.536 49.182 C 229.766 49.182,229.954 49.287,229.954 49.415 C 229.954 49.543,230.396 49.730,230.935 49.831 C 231.475 49.932,232.034 50.106,232.178 50.218 C 232.322 50.330,233.087 50.571,233.878 50.752 C 234.670 50.934,235.435 51.170,235.579 51.277 C 235.723 51.385,236.547 51.557,237.410 51.661 C 238.273 51.764,239.097 51.944,239.241 52.060 C 239.385 52.176,242.399 52.311,245.938 52.361 C 250.297 52.423,252.491 52.550,252.740 52.755 C 252.941 52.922,253.683 53.143,254.388 53.248 C 255.092 53.353,255.975 53.599,256.350 53.794 C 256.724 53.990,257.216 54.151,257.443 54.151 C 257.986 54.154,263.490 56.965,265.079 58.052 C 267.992 60.044,270.362 62.953,270.909 65.206 C 271.005 65.602,271.173 65.925,271.283 65.925 C 271.393 65.925,271.556 66.381,271.645 66.937 C 271.734 67.494,271.984 68.288,272.200 68.703 C 272.416 69.118,272.594 69.757,272.595 70.124 C 272.596 70.491,272.744 70.938,272.923 71.118 C 273.373 71.568,273.388 82.309,272.940 83.217 C 272.653 83.798,272.415 84.875,271.817 88.293 C 270.930 93.365,272.208 97.111,274.935 97.427 C 277.800 97.759,283.322 101.398,283.322 102.954 C 283.322 103.065,284.415 104.285,285.751 105.665 C 288.376 108.379,291.297 113.465,291.622 115.887 C 291.700 116.473,291.866 117.015,291.991 117.092 C 292.115 117.169,292.217 117.770,292.217 118.429 C 292.217 119.660,292.661 121.588,293.046 122.027 C 293.166 122.164,293.264 122.458,293.265 122.681 C 293.266 122.905,293.450 123.438,293.673 123.866 C 293.896 124.294,294.140 125.413,294.215 126.351 C 294.290 127.290,294.468 128.301,294.611 128.598 C 295.132 129.684,294.543 136.153,293.766 137.868 C 293.086 139.369,292.773 140.135,292.534 140.876 C 292.085 142.267,287.930 150.129,286.985 151.375 C 285.935 152.758,284.975 153.707,280.481 157.802 L 277.248 160.748 277.415 162.175 C 277.507 162.960,277.684 163.727,277.808 163.881 C 277.932 164.034,278.181 165.278,278.361 166.645 C 278.541 168.012,278.804 169.278,278.946 169.459 C 279.316 169.931,279.496 178.731,279.180 180.903 C 278.834 183.277,278.141 186.279,277.855 186.638 C 277.732 186.793,277.547 187.214,277.443 187.574 C 276.606 190.490,271.812 196.730,270.408 196.730 C 270.204 196.730,269.969 196.906,269.886 197.122 C 269.803 197.338,269.617 197.515,269.473 197.515 C 269.329 197.515,268.215 198.103,266.997 198.823 C 265.779 199.542,264.667 200.131,264.525 200.131 C 264.383 200.131,263.875 200.327,263.396 200.567 C 261.840 201.347,261.702 201.393,260.405 201.566 C 259.700 201.660,258.888 201.844,258.600 201.975 C 257.218 202.604,247.744 203.281,247.135 202.794 C 246.966 202.658,245.798 202.464,244.540 202.362 C 243.281 202.260,242.186 202.070,242.105 201.939 C 241.904 201.613,237.089 201.635,236.887 201.962 C 236.798 202.106,236.384 202.224,235.968 202.224 C 235.367 202.224,235.126 202.404,234.798 203.094 C 234.349 204.040,230.792 208.840,230.435 208.982 C 230.315 209.030,230.216 209.194,230.216 209.346 C 230.216 209.989,226.770 213.615,224.805 215.041 C 224.112 215.543,223.451 216.103,223.336 216.283 C 223.221 216.464,222.974 216.612,222.788 216.612 C 222.601 216.612,222.236 216.848,221.975 217.135 C 221.715 217.423,221.343 217.659,221.150 217.659 C 220.956 217.659,220.798 217.748,220.798 217.858 C 220.798 217.968,220.576 218.174,220.305 218.316 C 219.387 218.797,216.746 220.079,216.220 220.298 C 215.342 220.664,212.677 221.060,211.086 221.060 C 210.257 221.060,209.507 221.177,209.418 221.321 C 209.201 221.672,200.740 221.672,200.523 221.321 C 200.430 221.170,199.023 221.060,197.194 221.060 C 194.145 221.060,190.867 220.685,190.320 220.276 C 190.177 220.167,189.482 219.996,188.778 219.893 C 188.073 219.791,187.308 219.616,187.077 219.504 C 186.847 219.392,185.985 218.973,185.163 218.572 C 184.341 218.171,183.408 217.566,183.090 217.228 C 182.772 216.889,182.401 216.612,182.266 216.612 C 181.990 216.612,178.919 213.411,177.109 211.237 C 173.985 207.486,172.246 205.966,169.597 204.676 C 168.189 203.990,166.491 202.981,165.824 202.434 C 165.156 201.887,164.435 201.439,164.221 201.439 C 164.006 201.439,163.699 201.280,163.537 201.085 C 163.203 200.681,160.726 200.800,160.166 201.246 C 159.663 201.647,152.339 201.601,151.079 201.189 C 148.471 200.335,146.883 199.760,146.763 199.624 C 146.425 199.244,144.683 198.577,143.623 198.422 C 141.641 198.131,140.423 197.467,137.722 195.201 C 134.316 192.345,129.758 185.677,129.758 183.552 C 129.758 183.318,129.655 183.126,129.530 183.126 C 129.404 183.126,129.223 182.632,129.126 182.027 C 129.029 181.423,128.852 180.805,128.732 180.654 C 128.498 180.360,128.056 178.302,127.635 175.540 C 127.492 174.604,127.264 173.478,127.128 173.036 C 126.992 172.594,126.880 170.665,126.880 168.750 C 126.880 165.617,126.605 163.590,126.079 162.852 C 125.977 162.708,125.811 162.090,125.710 161.479 C 125.609 160.869,125.430 160.309,125.312 160.237 C 125.195 160.164,125.017 159.516,124.918 158.797 C 124.819 158.077,124.639 157.427,124.516 157.352 C 124.394 157.276,124.216 156.691,124.120 156.051 C 123.909 154.642,123.268 153.954,121.218 152.932 C 117.890 151.273,114.061 148.155,114.061 147.102 C 114.061 146.915,113.955 146.763,113.826 146.763 C 113.696 146.763,113.314 146.321,112.976 145.782 C 112.638 145.242,112.097 144.388,111.774 143.885 C 111.451 143.381,111.043 142.675,110.868 142.315 C 110.692 141.956,110.305 141.249,110.009 140.746 C 109.374 139.669,108.406 137.282,108.151 136.167 C 108.053 135.736,107.887 135.265,107.782 135.121 C 107.678 134.977,107.526 134.342,107.446 133.710 C 107.365 133.078,107.202 132.489,107.083 132.402 C 106.964 132.315,106.721 132.008,106.542 131.720 C 102.899 125.864,103.301 112.003,107.229 108.075 C 107.507 107.797,108.616 106.469,109.693 105.125 C 112.827 101.214,113.065 101.037,118.770 98.396 C 121.122 97.307,124.112 95.551,124.218 95.196 C 124.417 94.528,127.124 89.096,128.050 87.508 C 128.553 86.645,129.039 85.733,129.130 85.481 C 129.221 85.229,129.409 85.023,129.547 85.023 C 129.697 85.023,129.771 83.882,129.731 82.211 C 129.645 78.603,130.028 70.060,130.292 69.719 C 130.403 69.575,130.577 68.869,130.678 68.149 C 130.779 67.430,131.025 66.580,131.225 66.262 C 131.425 65.943,131.589 65.564,131.589 65.419 C 131.589 62.697,139.010 55.366,142.334 54.804 C 142.960 54.698,143.653 54.514,143.875 54.394 C 144.096 54.275,144.984 54.049,145.847 53.892 C 146.710 53.735,147.946 53.501,148.594 53.372 C 149.241 53.243,150.441 53.131,151.260 53.122 C 152.079 53.114,152.811 53.005,152.888 52.882 C 152.964 52.758,153.699 52.578,154.521 52.482 C 155.343 52.385,156.141 52.208,156.294 52.088 C 156.447 51.968,158.436 51.797,160.712 51.707 C 162.989 51.618,164.990 51.455,165.160 51.346 C 165.474 51.144,169.367 50.358,171.776 50.010 C 172.781 49.865,173.324 49.607,173.955 48.976 C 174.417 48.514,174.903 48.136,175.035 48.136 C 175.167 48.136,175.613 47.669,176.026 47.098 C 177.016 45.733,179.178 43.994,181.331 42.833 C 182.286 42.317,184.085 41.111,185.329 40.151 C 187.770 38.267,192.019 35.958,193.555 35.682 C 194.078 35.588,194.626 35.416,194.773 35.301 C 195.345 34.851,201.301 34.865,202.354 35.319 M388.812 122.956 C 388.812 123.460,388.865 123.666,388.931 123.414 C 388.997 123.162,388.997 122.750,388.931 122.498 C 388.865 122.247,388.812 122.453,388.812 122.956 " stroke="none" fill="#94c304" fill-rule="evenodd"></path><path id="path1" d="M195.291 41.075 C 192.277 41.728,191.498 41.945,191.498 42.133 C 191.498 42.246,191.145 42.417,190.713 42.511 C 190.281 42.606,189.928 42.792,189.928 42.925 C 189.928 43.057,189.806 43.165,189.656 43.165 C 188.730 43.165,183.388 48.616,183.388 49.560 C 183.388 49.714,181.776 51.841,181.295 52.322 C 180.920 52.697,180.021 54.133,179.658 54.938 C 179.430 55.441,178.882 56.656,178.438 57.638 C 177.515 59.682,177.474 60.253,178.171 61.347 C 178.446 61.779,178.782 62.382,178.917 62.686 C 179.252 63.442,180.281 64.213,182.042 65.027 C 182.854 65.403,183.964 65.936,184.508 66.210 C 185.052 66.485,185.729 66.710,186.012 66.710 C 186.295 66.710,186.527 66.815,186.527 66.942 C 186.527 67.070,187.086 67.257,187.770 67.359 C 188.453 67.461,189.130 67.635,189.274 67.747 C 189.418 67.859,190.183 68.098,190.974 68.280 C 191.766 68.461,192.558 68.725,192.735 68.865 C 193.543 69.505,203.801 69.318,210.174 68.545 C 213.319 68.164,217.164 66.831,218.975 65.492 C 219.769 64.906,220.908 64.177,221.508 63.871 C 222.646 63.290,223.937 61.849,223.937 61.158 C 223.937 60.938,224.114 60.611,224.330 60.432 C 224.778 60.060,224.881 57.683,224.460 57.423 C 224.317 57.334,224.199 57.022,224.199 56.730 C 224.199 56.437,223.963 55.898,223.676 55.532 C 223.388 55.167,223.152 54.719,223.152 54.538 C 223.152 54.357,222.976 54.141,222.760 54.058 C 222.544 53.976,222.368 53.776,222.368 53.616 C 222.368 53.455,221.661 52.529,220.798 51.558 C 219.935 50.586,219.228 49.666,219.228 49.513 C 219.228 49.097,214.786 44.735,214.362 44.735 C 214.161 44.735,213.996 44.633,213.996 44.509 C 213.996 44.384,212.731 43.660,211.184 42.901 C 209.637 42.141,208.136 41.394,207.848 41.241 C 207.198 40.895,196.758 40.757,195.291 41.075 M150.416 56.515 C 148.901 56.611,147.408 56.825,147.098 56.991 C 146.789 57.157,146.344 57.292,146.109 57.292 C 145.874 57.292,145.039 57.587,144.253 57.946 C 143.466 58.306,142.709 58.600,142.569 58.600 C 142.429 58.600,142.315 58.689,142.315 58.798 C 142.315 58.907,141.986 59.141,141.584 59.319 C 139.398 60.287,136.619 64.157,135.337 68.018 C 134.763 69.748,134.691 80.999,135.240 83.322 C 135.409 84.042,135.696 85.278,135.875 86.069 C 136.626 89.371,138.519 92.610,139.698 92.610 C 140.216 92.610,140.746 92.265,140.746 91.928 C 140.746 91.665,141.108 91.563,142.038 91.563 C 142.749 91.563,143.394 91.461,143.471 91.336 C 143.548 91.211,144.208 91.030,144.938 90.933 C 146.887 90.674,149.161 89.413,152.167 86.925 C 152.910 86.311,153.580 85.808,153.658 85.808 C 153.836 85.808,157.030 83.397,158.386 82.239 C 158.951 81.756,159.569 81.360,159.759 81.360 C 159.949 81.360,160.105 81.243,160.105 81.099 C 160.105 80.955,160.226 80.837,160.374 80.837 C 160.904 80.837,163.934 78.048,165.860 75.787 C 166.939 74.520,168.411 72.872,169.130 72.124 C 173.201 67.895,173.085 64.103,168.809 61.654 C 168.515 61.485,167.407 60.830,166.348 60.199 C 162.410 57.851,159.811 56.867,156.906 56.626 C 153.594 56.351,153.120 56.343,150.416 56.515 M243.689 58.388 C 242.538 58.530,241.360 58.746,241.073 58.870 C 240.785 58.993,240.050 59.170,239.439 59.262 C 238.828 59.355,238.270 59.525,238.199 59.639 C 238.129 59.754,237.539 59.928,236.890 60.025 C 236.241 60.122,235.710 60.303,235.710 60.427 C 235.710 60.551,235.356 60.729,234.925 60.824 C 234.493 60.919,234.140 61.105,234.140 61.237 C 234.140 61.370,233.987 61.478,233.801 61.478 C 232.686 61.478,231.181 63.975,231.876 64.671 C 232.070 64.864,232.316 65.491,232.423 66.063 C 232.530 66.635,232.706 67.220,232.815 67.364 C 232.923 67.508,233.164 68.185,233.349 68.869 C 233.533 69.552,233.787 70.111,233.912 70.111 C 234.038 70.111,234.140 70.223,234.140 70.359 C 234.140 70.569,234.950 71.991,236.303 74.159 C 236.622 74.669,237.366 75.662,240.157 79.304 C 241.796 81.443,244.273 84.271,245.484 85.387 C 245.935 85.803,246.798 86.598,247.401 87.153 C 248.004 87.708,248.580 88.162,248.681 88.162 C 248.782 88.162,249.485 88.692,250.242 89.339 C 251.000 89.987,251.734 90.517,251.874 90.517 C 252.013 90.517,252.278 90.699,252.463 90.922 C 252.648 91.145,253.457 91.644,254.261 92.030 C 255.065 92.417,255.782 92.810,255.853 92.903 C 255.925 92.996,256.632 93.437,257.423 93.881 C 260.507 95.614,261.256 95.764,261.533 94.701 C 261.683 94.131,262.005 94.023,262.271 94.454 C 262.381 94.632,262.547 94.639,262.745 94.475 C 262.913 94.336,263.439 94.183,263.915 94.135 C 265.058 94.021,266.473 91.537,266.764 89.136 C 266.848 88.448,267.017 87.823,267.140 87.747 C 267.455 87.552,267.421 83.519,267.103 83.322 C 266.959 83.234,266.841 82.527,266.841 81.753 C 266.841 80.978,266.959 80.272,267.103 80.183 C 267.421 79.986,267.453 78.045,267.141 77.852 C 267.018 77.776,266.855 75.650,266.780 73.127 C 266.704 70.604,266.526 68.393,266.383 68.214 C 266.241 68.034,266.039 67.417,265.936 66.841 C 265.636 65.184,264.279 63.048,263.525 63.048 C 263.335 63.048,263.179 62.952,263.179 62.834 C 263.179 62.465,257.411 59.709,254.807 58.834 C 252.827 58.169,247.280 57.946,243.689 58.388 M196.730 75.091 C 195.795 75.215,194.043 75.438,192.837 75.587 C 191.631 75.737,190.513 75.963,190.352 76.090 C 190.191 76.218,189.588 76.407,189.012 76.511 C 187.874 76.716,184.173 78.426,184.173 78.747 C 184.173 78.856,183.947 79.004,183.671 79.076 C 183.394 79.148,182.736 79.810,182.207 80.546 C 181.678 81.281,181.102 81.884,180.925 81.884 C 179.847 81.884,177.341 85.025,176.813 87.038 C 176.670 87.584,176.369 88.433,176.145 88.923 C 175.705 89.886,175.847 93.179,176.337 93.351 C 176.474 93.399,176.586 93.661,176.586 93.933 C 176.586 94.359,178.103 97.473,178.682 98.234 C 178.792 98.378,178.964 98.996,179.065 99.608 C 179.166 100.219,179.343 100.719,179.458 100.719 C 179.574 100.719,179.750 101.042,179.848 101.436 C 179.947 101.830,180.113 102.213,180.216 102.286 C 180.320 102.360,180.738 103.009,181.145 103.728 C 181.988 105.215,183.335 106.736,183.810 106.736 C 183.985 106.736,184.168 106.836,184.216 106.958 C 184.473 107.609,188.931 110.110,193.198 111.997 C 194.701 112.661,197.264 113.287,199.113 113.441 C 200.257 113.537,201.256 113.715,201.332 113.838 C 201.523 114.148,202.680 114.119,202.878 113.800 C 202.967 113.656,203.533 113.535,204.136 113.532 C 208.698 113.505,214.258 109.472,214.258 106.189 C 214.258 106.014,214.581 105.449,214.977 104.934 C 215.854 103.792,216.246 103.164,216.667 102.224 C 216.844 101.828,217.071 101.504,217.172 101.504 C 217.273 101.504,217.435 101.143,217.532 100.702 C 217.629 100.260,217.873 99.584,218.074 99.198 C 218.275 98.812,218.441 98.285,218.442 98.027 C 218.443 97.770,218.689 97.227,218.989 96.821 C 219.541 96.075,221.119 92.501,221.679 90.730 C 221.847 90.200,222.070 89.680,222.176 89.575 C 222.445 89.306,222.416 86.915,222.141 86.745 C 222.017 86.668,221.850 86.122,221.771 85.532 C 221.692 84.942,221.447 84.321,221.226 84.152 C 221.006 83.984,220.533 83.257,220.175 82.538 C 219.276 80.729,218.026 79.549,215.827 78.433 C 215.468 78.250,215.114 78.036,215.043 77.957 C 214.971 77.878,214.029 77.481,212.950 77.074 C 211.871 76.668,210.799 76.240,210.568 76.123 C 210.338 76.006,209.572 75.825,208.868 75.721 C 208.163 75.617,207.513 75.418,207.423 75.279 C 207.208 74.946,198.925 74.801,196.730 75.091 M125.463 100.423 C 125.385 100.548,124.877 100.722,124.334 100.809 C 123.259 100.981,120.704 102.184,120.078 102.813 C 120.007 102.885,119.438 103.291,118.815 103.713 C 117.610 104.531,114.061 108.188,114.061 108.612 C 114.061 108.751,113.781 109.239,113.438 109.697 C 113.095 110.155,112.318 111.589,111.711 112.884 C 111.104 114.179,110.481 115.474,110.327 115.762 C 109.686 116.954,109.705 126.944,110.349 127.745 C 110.487 127.917,110.679 128.426,110.775 128.877 C 110.963 129.755,112.693 133.275,113.502 134.424 C 113.772 134.807,114.083 135.415,114.193 135.775 C 114.303 136.135,114.466 136.488,114.555 136.560 C 114.810 136.767,115.346 137.663,115.776 138.600 C 116.151 139.418,118.391 141.792,118.787 141.792 C 118.889 141.792,119.663 142.249,120.506 142.809 C 121.350 143.368,122.688 144.143,123.479 144.531 C 124.271 144.919,125.127 145.347,125.382 145.482 C 125.637 145.617,126.376 145.800,127.024 145.889 C 127.672 145.978,128.265 146.152,128.342 146.276 C 128.529 146.579,130.020 146.565,130.020 146.260 C 130.020 146.128,130.343 145.943,130.739 145.851 C 132.020 145.551,134.317 142.198,136.299 137.737 C 137.339 135.396,137.606 134.706,137.606 134.366 C 137.606 134.151,137.716 133.907,137.850 133.824 C 137.983 133.742,138.166 132.999,138.255 132.174 C 138.344 131.349,138.543 130.446,138.698 130.168 C 139.058 129.519,139.080 115.899,138.721 115.664 C 138.583 115.574,138.397 114.692,138.307 113.704 C 138.217 112.717,138.036 111.775,137.905 111.611 C 137.774 111.448,137.585 110.933,137.486 110.467 C 137.386 110.001,137.195 109.553,137.062 109.470 C 136.734 109.268,135.775 107.131,135.775 106.603 C 135.775 104.791,132.772 101.107,131.071 100.834 C 130.565 100.753,129.880 100.576,129.549 100.441 C 128.793 100.133,125.651 100.119,125.463 100.423 M266.154 103.240 C 265.202 103.451,263.601 105.913,262.094 109.483 C 261.623 110.599,260.562 114.101,260.562 114.540 C 260.562 114.795,260.457 115.115,260.328 115.252 C 260.098 115.497,259.701 116.987,259.253 119.294 C 258.936 120.924,258.957 128.847,259.282 130.281 C 260.084 133.817,260.219 134.369,260.371 134.729 C 260.462 134.944,260.665 135.651,260.822 136.298 C 260.979 136.946,261.204 137.711,261.323 137.999 C 262.067 139.810,262.872 141.352,263.851 142.843 C 264.466 143.781,265.050 144.870,265.149 145.263 C 265.247 145.656,265.420 145.978,265.533 145.978 C 265.646 145.978,265.815 146.283,265.908 146.656 C 266.578 149.324,270.516 150.217,274.559 148.618 C 279.371 146.714,285.154 142.138,285.154 140.233 C 285.154 140.107,285.242 139.965,285.350 139.917 C 285.592 139.810,286.723 137.523,286.723 137.141 C 286.723 136.989,286.889 136.531,287.092 136.123 C 287.867 134.564,288.053 134.015,288.451 132.112 C 289.190 128.577,289.412 125.748,289.121 123.554 C 288.617 119.755,288.033 116.578,287.811 116.431 C 287.690 116.351,287.514 115.891,287.420 115.410 C 287.326 114.928,286.896 114.010,286.463 113.369 C 286.031 112.728,285.677 112.105,285.677 111.983 C 285.677 111.862,285.500 111.695,285.284 111.612 C 285.069 111.530,284.892 111.284,284.892 111.067 C 284.892 110.850,284.568 110.467,284.173 110.217 C 283.777 109.966,282.797 109.198,281.994 108.510 C 281.192 107.822,280.397 107.260,280.228 107.260 C 280.060 107.260,279.922 107.155,279.922 107.026 C 279.922 106.898,279.599 106.712,279.205 106.613 C 278.810 106.514,278.428 106.354,278.354 106.258 C 278.048 105.855,274.722 104.382,273.512 104.114 C 272.793 103.954,272.016 103.724,271.786 103.603 C 271.293 103.341,266.957 103.062,266.154 103.240 M234.925 103.744 C 234.421 103.935,233.768 104.097,233.473 104.106 C 232.503 104.132,229.578 105.830,228.236 107.145 C 227.511 107.855,226.630 108.685,226.278 108.989 C 224.230 110.753,221.583 114.610,221.583 115.829 C 221.583 116.094,221.475 116.423,221.344 116.560 C 221.213 116.697,220.973 117.574,220.811 118.509 C 220.649 119.444,220.395 120.916,220.246 121.779 C 219.957 123.458,220.105 126.486,220.500 126.976 C 220.632 127.139,220.818 128.038,220.914 128.973 C 221.097 130.757,221.147 130.924,222.111 133.028 C 222.732 134.382,224.773 137.703,225.408 138.391 C 225.607 138.607,226.183 139.313,226.687 139.961 C 227.191 140.608,227.720 141.280,227.863 141.454 C 228.006 141.628,228.123 141.860,228.123 141.970 C 228.123 142.299,231.090 145.193,231.428 145.193 C 231.601 145.193,231.781 145.282,231.829 145.391 C 232.478 146.865,238.326 149.072,238.326 147.843 C 238.326 147.718,239.233 147.558,240.341 147.487 C 241.506 147.412,242.399 147.232,242.456 147.060 C 242.510 146.896,242.674 146.763,242.819 146.763 C 242.964 146.763,243.396 146.525,243.778 146.235 C 244.161 145.945,244.709 145.532,244.997 145.317 C 246.721 144.030,247.350 143.400,248.223 142.084 C 249.245 140.542,249.462 140.127,250.360 137.999 C 250.663 137.279,251.012 136.455,251.135 136.167 C 251.831 134.542,252.239 132.502,252.442 129.632 C 252.568 127.851,252.827 126.129,253.020 125.792 C 253.286 125.324,253.368 123.520,253.368 118.116 L 253.368 111.053 252.453 109.720 C 251.949 108.987,251.186 108.163,250.757 107.889 C 248.560 106.485,247.030 105.696,246.501 105.693 C 246.177 105.691,245.912 105.587,245.912 105.462 C 245.912 105.337,245.219 105.156,244.372 105.060 C 243.475 104.959,242.198 104.562,241.315 104.111 C 239.607 103.237,236.705 103.071,234.925 103.744 M160.039 109.264 C 159.500 109.330,159.058 109.478,159.058 109.594 C 159.058 109.709,158.347 109.868,157.479 109.946 C 156.610 110.025,155.757 110.207,155.582 110.352 C 155.408 110.496,154.814 110.698,154.262 110.801 C 153.711 110.904,152.769 111.269,152.169 111.612 C 151.570 111.955,150.903 112.299,150.687 112.377 C 150.103 112.589,148.396 115.006,148.200 115.900 C 148.106 116.328,147.921 116.678,147.788 116.678 C 147.656 116.678,147.547 116.825,147.546 117.005 C 147.545 117.184,147.393 117.626,147.209 117.986 C 146.446 119.471,145.921 121.237,145.671 123.151 C 145.275 126.181,145.125 130.536,145.403 130.888 C 145.538 131.058,145.730 131.653,145.831 132.210 C 145.931 132.767,146.115 133.415,146.239 133.649 C 146.363 133.883,146.738 134.781,147.071 135.644 C 147.405 136.508,147.767 137.253,147.874 137.301 C 147.982 137.349,148.071 137.530,148.071 137.704 C 148.071 137.877,148.299 138.467,148.579 139.015 C 148.858 139.563,149.165 140.369,149.261 140.806 C 149.762 143.085,154.992 149.902,156.240 149.902 C 156.375 149.902,156.976 150.290,157.575 150.765 C 158.175 151.239,159.137 151.845,159.712 152.111 C 160.288 152.377,160.963 152.695,161.213 152.818 C 161.826 153.119,165.860 153.104,165.860 152.800 C 165.860 152.668,166.213 152.482,166.645 152.387 C 167.077 152.292,167.430 152.106,167.430 151.974 C 167.430 151.842,167.579 151.733,167.762 151.733 C 167.946 151.733,169.075 150.748,170.272 149.545 C 171.760 148.049,172.999 147.076,174.187 146.471 C 177.129 144.972,181.033 140.381,181.033 138.420 C 181.033 138.293,181.209 137.852,181.424 137.440 C 181.639 137.028,181.816 136.508,181.817 136.285 C 181.817 136.062,181.963 135.735,182.141 135.557 C 182.574 135.124,182.605 126.864,182.175 126.332 C 182.012 126.130,181.797 125.582,181.697 125.114 C 181.597 124.647,181.407 124.264,181.274 124.264 C 181.142 124.264,181.033 124.070,181.033 123.832 C 181.033 123.415,180.188 121.484,178.722 118.553 C 178.137 117.383,176.158 115.231,174.455 113.913 C 172.960 112.756,167.270 109.876,166.480 109.876 C 166.197 109.876,165.843 109.754,165.693 109.604 C 165.394 109.305,161.585 109.076,160.039 109.264 M203.328 138.144 C 201.992 138.252,200.756 138.454,200.581 138.593 C 200.405 138.732,199.838 138.922,199.321 139.015 C 198.803 139.108,197.897 139.418,197.306 139.703 C 196.715 139.989,196.109 140.222,195.958 140.222 C 195.807 140.222,195.683 140.340,195.683 140.484 C 195.683 140.628,195.516 140.746,195.312 140.746 C 194.918 140.746,191.759 143.771,191.759 144.149 C 191.759 144.271,191.612 144.528,191.432 144.721 C 191.252 144.914,190.879 145.482,190.602 145.983 C 190.325 146.484,189.579 147.477,188.943 148.191 C 187.846 149.423,185.742 153.326,185.742 154.130 C 185.742 154.337,185.602 154.646,185.431 154.818 C 185.023 155.225,184.996 159.199,185.394 160.235 C 185.559 160.667,185.957 161.903,186.279 162.982 C 186.600 164.061,187.023 165.315,187.218 165.769 C 187.414 166.222,187.574 166.718,187.574 166.871 C 187.574 168.123,191.991 173.447,193.030 173.447 C 193.195 173.447,193.329 173.555,193.329 173.688 C 193.329 173.820,193.682 174.006,194.114 174.101 C 194.545 174.196,194.899 174.381,194.899 174.514 C 194.899 174.646,195.086 174.755,195.316 174.755 C 195.546 174.755,196.046 174.928,196.428 175.139 C 198.165 176.100,199.372 176.367,203.114 176.617 C 207.116 176.884,212.541 176.575,213.067 176.049 C 213.204 175.913,213.622 175.801,213.995 175.801 C 217.143 175.801,222.806 170.218,224.078 165.860 C 224.183 165.500,224.401 165.122,224.561 165.019 C 224.963 164.762,224.961 157.442,224.559 156.940 C 224.397 156.738,224.184 156.016,224.086 155.336 C 223.987 154.656,223.806 154.038,223.683 153.962 C 223.560 153.886,223.380 153.353,223.283 152.778 C 223.186 152.203,223.012 151.733,222.897 151.733 C 222.782 151.733,222.610 151.321,222.516 150.818 C 222.421 150.314,222.231 149.902,222.094 149.902 C 221.957 149.902,221.844 149.768,221.844 149.604 C 221.844 149.105,220.728 146.964,219.816 145.716 C 217.581 142.655,215.390 140.697,212.819 139.464 C 212.099 139.119,211.310 138.739,211.064 138.619 C 210.042 138.120,206.398 137.896,203.328 138.144 M268.018 158.435 C 267.498 158.561,266.902 158.795,265.402 159.462 C 262.884 160.582,262.138 160.889,261.937 160.889 C 261.557 160.889,256.557 163.522,255.675 164.186 C 255.217 164.531,254.766 164.814,254.673 164.814 C 254.579 164.814,252.976 166.254,251.110 168.015 C 249.244 169.776,247.517 171.326,247.273 171.459 C 246.786 171.724,244.327 173.988,241.848 176.454 C 240.077 178.214,238.400 181.202,238.148 183.045 C 238.061 183.673,237.890 184.250,237.766 184.326 C 236.778 184.937,238.063 189.078,239.742 190.696 C 240.310 191.244,240.742 191.956,240.848 192.518 C 241.268 194.757,243.978 198.298,245.271 198.299 C 245.566 198.299,245.932 198.424,246.084 198.576 C 246.730 199.222,254.317 198.602,255.797 197.783 C 256.044 197.646,256.893 197.235,257.685 196.870 C 258.476 196.505,259.771 195.855,260.562 195.427 C 261.354 194.999,262.148 194.646,262.328 194.643 C 262.508 194.640,262.655 194.519,262.655 194.375 C 262.655 194.232,262.811 194.114,263.001 194.114 C 264.204 194.114,268.084 189.160,270.110 185.036 C 270.902 183.425,271.554 182.012,271.559 181.897 C 271.564 181.782,271.795 181.216,272.073 180.641 C 272.351 180.065,272.583 179.412,272.588 179.189 C 272.592 178.966,272.732 178.648,272.898 178.482 C 273.084 178.296,273.281 176.449,273.411 173.655 C 273.528 171.166,273.699 168.558,273.792 167.858 C 273.888 167.141,273.844 166.343,273.692 166.027 C 273.544 165.719,273.350 164.769,273.263 163.915 C 273.175 163.061,273.003 162.237,272.880 162.084 C 272.757 161.931,272.579 161.441,272.484 160.996 C 272.067 159.041,270.119 157.924,268.018 158.435 M139.961 160.333 C 139.961 160.458,139.346 160.642,138.594 160.742 C 137.842 160.842,137.106 161.017,136.959 161.131 C 136.811 161.245,136.286 161.416,135.792 161.510 C 134.806 161.697,133.944 162.342,133.944 162.892 C 133.944 163.086,133.848 163.244,133.732 163.244 C 133.165 163.244,132.600 166.354,132.728 168.771 C 132.919 172.389,133.424 176.928,133.669 177.234 C 133.787 177.381,133.971 177.910,134.078 178.409 C 134.184 178.908,134.367 179.496,134.483 179.717 C 134.599 179.937,134.828 180.706,134.992 181.426 C 135.240 182.515,136.935 186.242,138.345 188.798 C 139.604 191.079,144.353 194.499,147.016 195.042 C 147.514 195.144,148.103 195.321,148.324 195.436 C 150.039 196.332,156.387 196.931,156.816 196.237 C 156.895 196.110,157.487 195.926,158.133 195.829 C 158.779 195.732,159.376 195.542,159.460 195.407 C 159.544 195.271,159.788 195.160,160.002 195.160 C 160.216 195.160,160.879 194.925,161.474 194.637 C 162.744 194.023,163.142 193.988,163.427 194.461 C 164.425 196.119,165.938 195.901,166.877 193.963 C 167.221 193.255,167.662 192.342,167.858 191.934 C 168.263 191.092,168.376 183.780,167.987 183.540 C 167.862 183.463,167.678 182.661,167.578 181.759 C 167.477 180.856,167.245 179.882,167.061 179.595 C 166.878 179.307,166.641 178.719,166.535 178.289 C 166.429 177.859,166.261 177.447,166.163 177.373 C 166.065 177.300,165.481 176.239,164.865 175.016 C 163.061 171.436,161.863 169.697,159.820 167.691 C 158.235 166.136,155.180 163.601,154.263 163.080 C 152.276 161.950,149.955 160.874,149.204 160.733 C 148.721 160.643,148.262 160.464,148.183 160.337 C 147.997 160.036,139.961 160.032,139.961 160.333 M197.143 183.615 C 197.066 183.740,196.029 183.927,194.839 184.031 C 193.649 184.134,192.557 184.311,192.413 184.423 C 192.269 184.536,191.709 184.707,191.167 184.805 C 190.320 184.958,188.895 185.603,187.031 186.678 C 185.820 187.377,183.571 189.367,182.923 190.314 C 182.055 191.581,179.939 193.671,178.626 194.558 C 177.002 195.656,176.374 197.357,177.074 198.761 C 177.199 199.011,177.690 200.039,178.167 201.046 C 179.018 202.847,179.674 203.865,181.622 206.417 C 182.162 207.124,182.603 207.760,182.603 207.832 C 182.603 208.053,186.918 212.426,187.136 212.426 C 187.250 212.426,187.777 212.765,188.308 213.178 C 190.851 215.157,192.944 215.847,198.038 216.386 C 200.881 216.687,207.326 216.521,207.796 216.135 C 207.969 215.993,208.671 215.793,209.356 215.691 C 210.041 215.589,210.666 215.401,210.745 215.274 C 210.823 215.147,211.149 215.043,211.468 215.043 C 211.787 215.043,212.281 214.883,212.564 214.689 C 212.848 214.495,213.434 214.253,213.865 214.151 C 214.989 213.887,218.443 212.178,218.443 211.887 C 218.443 211.752,218.572 211.642,218.729 211.642 C 218.886 211.642,219.328 211.403,219.710 211.110 C 220.093 210.818,220.753 210.318,221.177 209.999 C 222.701 208.852,224.053 207.361,225.266 205.489 C 226.859 203.032,227.274 202.311,227.450 201.697 C 227.552 201.339,227.795 200.693,227.991 200.262 C 228.947 198.147,229.169 197.514,229.169 196.904 C 229.169 196.539,229.291 195.922,229.439 195.533 C 229.876 194.383,228.184 190.974,227.175 190.974 C 227.076 190.974,226.631 190.707,226.186 190.379 C 225.740 190.051,224.905 189.551,224.330 189.267 C 223.754 188.983,223.224 188.678,223.152 188.590 C 223.080 188.501,222.727 188.338,222.368 188.228 C 222.008 188.117,221.655 187.954,221.583 187.865 C 221.428 187.675,218.558 186.262,216.839 185.530 C 216.172 185.246,215.112 184.929,214.484 184.825 C 213.856 184.722,213.220 184.538,213.070 184.418 C 212.920 184.298,211.710 184.118,210.380 184.017 C 209.051 183.917,207.901 183.734,207.825 183.611 C 207.643 183.317,197.326 183.321,197.143 183.615 " stroke="none" fill="#e3044b" fill-rule="evenodd"></path><path id="path2" d="M186.920 13.114 C 182.122 13.332,175.437 13.774,173.708 13.987 C 172.175 14.176,165.636 14.885,163.684 15.074 C 162.845 15.156,162.107 15.366,162.039 15.544 C 161.971 15.722,161.366 15.893,160.683 15.927 C 159.184 16.002,154.798 16.572,151.602 17.108 C 150.307 17.325,148.365 17.629,147.286 17.785 C 146.207 17.940,145.142 18.167,144.921 18.289 C 144.699 18.411,143.757 18.597,142.828 18.702 C 141.898 18.808,141.020 18.983,140.876 19.092 C 140.733 19.200,139.984 19.370,139.213 19.468 C 138.441 19.566,137.558 19.806,137.250 20.001 C 136.943 20.196,136.073 20.437,135.317 20.536 C 134.562 20.635,133.878 20.823,133.798 20.953 C 133.717 21.084,133.224 21.190,132.703 21.190 C 132.181 21.190,131.099 21.361,130.298 21.569 C 129.498 21.777,127.606 22.256,126.095 22.633 C 122.047 23.643,119.941 24.300,118.970 24.855 C 118.720 24.998,118.340 25.114,118.125 25.114 C 117.361 25.114,109.095 27.816,107.390 28.623 C 106.671 28.964,104.846 29.681,103.336 30.217 C 100.362 31.272,100.041 31.402,96.968 32.809 C 95.840 33.325,94.810 33.748,94.679 33.748 C 94.548 33.748,94.441 33.865,94.441 34.009 C 94.441 34.153,94.253 34.271,94.023 34.271 C 93.794 34.271,93.293 34.438,92.912 34.642 C 92.530 34.846,89.745 36.207,86.723 37.668 C 78.736 41.527,77.436 42.194,77.436 42.430 C 77.436 42.547,77.265 42.642,77.057 42.642 C 76.848 42.642,76.583 42.802,76.468 42.998 C 76.353 43.193,75.818 43.497,75.278 43.672 C 74.738 43.847,74.297 44.099,74.297 44.232 C 74.297 44.365,74.166 44.474,74.006 44.474 C 73.559 44.474,69.326 47.092,69.326 47.369 C 69.326 47.503,69.179 47.615,68.999 47.618 C 68.819 47.621,68.095 48.003,67.390 48.468 C 66.684 48.933,65.903 49.435,65.653 49.584 C 64.704 50.152,62.906 51.418,62.655 51.697 C 62.511 51.856,61.118 52.846,59.558 53.896 C 57.998 54.946,56.586 56.022,56.421 56.287 C 56.255 56.552,55.998 56.769,55.849 56.769 C 55.479 56.769,52.420 59.237,50.903 60.759 C 50.222 61.442,49.575 62.001,49.465 62.001 C 49.355 62.001,48.040 63.213,46.542 64.693 C 45.045 66.174,43.466 67.678,43.035 68.036 C 42.603 68.394,41.706 69.331,41.041 70.118 C 40.376 70.906,39.268 72.139,38.579 72.858 C 35.548 76.023,33.983 77.936,31.519 81.491 C 30.821 82.498,29.771 84.005,29.186 84.840 C 27.850 86.748,27.408 87.492,25.967 90.255 C 25.330 91.478,24.418 93.070,23.941 93.793 C 23.174 94.954,22.325 96.630,21.692 98.234 C 21.579 98.522,21.255 99.304,20.972 99.973 C 20.690 100.641,20.375 101.583,20.271 102.066 C 20.168 102.548,19.993 103.061,19.882 103.205 C 19.772 103.349,19.593 103.878,19.485 104.381 C 19.377 104.884,19.112 105.708,18.895 106.212 C 18.185 107.865,18.075 108.158,17.560 109.745 C 17.279 110.608,16.989 111.668,16.914 112.099 C 16.839 112.531,16.659 113.273,16.513 113.747 C 16.368 114.222,16.168 115.458,16.070 116.494 C 15.972 117.530,15.776 118.523,15.636 118.699 C 15.035 119.455,15.088 141.514,15.690 141.142 C 15.801 141.074,15.973 142.104,16.072 143.432 C 16.171 144.760,16.432 146.494,16.652 147.286 C 17.511 150.382,18.155 152.398,18.360 152.636 C 18.478 152.772,18.575 153.067,18.576 153.290 C 18.577 153.513,18.742 154.011,18.944 154.397 C 19.145 154.783,19.393 155.489,19.495 155.967 C 19.598 156.444,19.768 156.952,19.874 157.096 C 19.980 157.240,20.194 157.829,20.348 158.404 C 20.763 159.946,21.454 161.770,21.732 162.054 C 21.866 162.190,21.975 162.521,21.975 162.788 C 21.975 163.272,22.925 165.138,23.806 166.383 C 24.265 167.033,25.300 168.896,26.624 171.456 C 27.391 172.940,28.736 175.060,29.545 176.063 C 29.836 176.422,30.076 176.803,30.079 176.909 C 30.082 177.015,30.733 177.939,31.524 178.964 C 32.315 179.988,32.963 180.903,32.963 180.998 C 32.963 181.092,33.228 181.463,33.552 181.821 C 33.875 182.179,34.670 183.120,35.317 183.911 C 37.398 186.456,39.493 188.724,39.941 188.919 C 40.060 188.970,40.490 189.503,40.898 190.103 C 41.684 191.262,44.502 193.852,44.976 193.852 C 45.131 193.852,45.258 194.001,45.258 194.182 C 45.258 194.512,47.868 197.091,50.523 199.384 C 51.296 200.052,52.230 200.876,52.597 201.215 C 52.965 201.554,53.730 202.153,54.298 202.547 C 54.866 202.940,55.706 203.617,56.166 204.051 C 56.626 204.485,57.076 204.840,57.166 204.840 C 57.256 204.840,57.494 204.987,57.694 205.167 C 58.371 205.773,58.727 206.031,59.778 206.673 C 60.353 207.025,61.118 207.573,61.478 207.892 C 62.348 208.661,66.422 211.380,66.705 211.380 C 66.828 211.380,66.968 211.468,67.015 211.576 C 67.159 211.899,75.094 216.874,75.465 216.874 C 75.519 216.874,76.513 217.462,77.673 218.182 C 78.832 218.901,79.854 219.490,79.942 219.490 C 80.114 219.490,84.099 221.446,84.761 221.855 C 84.977 221.988,86.095 222.525,87.247 223.048 C 88.398 223.570,90.929 224.760,92.871 225.691 C 94.814 226.622,96.638 227.485,96.926 227.609 C 97.214 227.732,98.038 228.081,98.757 228.385 C 99.477 228.688,100.301 229.040,100.589 229.167 C 100.876 229.294,101.406 229.474,101.766 229.566 C 102.538 229.765,103.985 230.361,104.912 230.864 C 105.275 231.061,106.334 231.473,107.266 231.779 C 108.198 232.086,109.141 232.433,109.361 232.551 C 109.582 232.669,110.149 232.850,110.621 232.954 C 111.094 233.058,111.796 233.308,112.182 233.509 C 112.568 233.710,113.142 233.876,113.457 233.877 C 113.773 233.878,114.097 233.986,114.178 234.117 C 114.259 234.249,114.821 234.440,115.426 234.542 C 116.031 234.644,116.708 234.823,116.929 234.938 C 117.150 235.054,118.332 235.468,119.555 235.858 C 120.778 236.248,121.988 236.672,122.242 236.798 C 122.497 236.925,123.263 237.104,123.943 237.194 C 124.623 237.285,125.239 237.431,125.311 237.518 C 125.496 237.742,128.855 238.556,130.412 238.754 C 131.131 238.846,131.838 239.011,131.982 239.121 C 132.126 239.232,132.950 239.406,133.813 239.510 C 134.676 239.614,135.547 239.831,135.748 239.993 C 136.137 240.307,138.228 240.798,141.007 241.228 C 141.942 241.372,142.894 241.591,143.121 241.714 C 143.348 241.837,144.349 242.022,145.345 242.125 C 146.340 242.229,147.273 242.404,147.417 242.514 C 147.560 242.625,148.561 242.800,149.640 242.904 C 150.719 243.008,151.720 243.183,151.864 243.292 C 152.008 243.402,153.126 243.576,154.349 243.679 C 155.572 243.782,156.691 243.956,156.835 244.067 C 157.512 244.586,169.155 246.094,174.232 246.319 C 176.174 246.405,177.999 246.583,178.286 246.714 C 179.398 247.221,208.729 247.965,209.680 247.511 C 209.967 247.373,213.672 247.187,217.912 247.098 C 222.152 247.009,225.683 246.841,225.760 246.725 C 225.837 246.609,227.606 246.437,229.693 246.342 C 234.956 246.103,246.412 244.616,247.090 244.083 C 247.233 243.970,248.440 243.793,249.771 243.690 C 251.102 243.587,252.191 243.411,252.191 243.299 C 252.191 243.188,253.191 243.013,254.414 242.911 C 255.636 242.810,256.695 242.631,256.767 242.515 C 256.839 242.398,257.747 242.218,258.785 242.114 C 259.823 242.009,260.854 241.829,261.075 241.714 C 261.297 241.598,262.243 241.376,263.179 241.221 C 266.337 240.696,268.072 240.289,268.438 239.986 C 268.639 239.820,269.509 239.599,270.373 239.495 C 271.236 239.392,272.060 239.233,272.204 239.143 C 272.348 239.053,273.231 238.842,274.166 238.674 C 276.523 238.251,278.387 237.814,279.006 237.541 C 279.294 237.414,279.941 237.232,280.445 237.138 C 280.948 237.043,283.101 236.389,285.228 235.684 C 287.355 234.978,289.268 234.402,289.479 234.402 C 289.690 234.402,289.863 234.284,289.863 234.140 C 289.863 233.996,290.186 233.878,290.582 233.877 C 290.978 233.876,291.617 233.710,292.003 233.509 C 292.389 233.308,293.092 233.058,293.564 232.954 C 294.037 232.850,294.604 232.669,294.825 232.551 C 295.045 232.433,295.980 232.089,296.902 231.786 C 297.823 231.483,298.821 231.064,299.118 230.856 C 299.415 230.648,299.838 230.477,300.058 230.476 C 300.278 230.475,300.752 230.323,301.112 230.139 C 301.472 229.954,302.354 229.586,303.074 229.320 C 304.348 228.850,305.888 228.208,307.561 227.450 C 308.014 227.245,308.476 227.077,308.587 227.077 C 308.697 227.077,308.974 226.922,309.201 226.734 C 309.428 226.546,310.674 225.933,311.969 225.372 C 313.264 224.812,314.866 224.024,315.529 223.622 C 316.193 223.220,316.899 222.884,317.099 222.875 C 317.299 222.867,317.958 222.602,318.563 222.287 C 321.626 220.691,324.110 219.490,324.348 219.490 C 324.494 219.490,324.652 219.402,324.700 219.294 C 324.748 219.186,325.581 218.685,326.551 218.182 C 327.521 217.678,328.316 217.178,328.317 217.070 C 328.318 216.962,328.496 216.874,328.712 216.874 C 328.927 216.874,329.104 216.758,329.104 216.617 C 329.104 216.476,329.398 216.287,329.758 216.196 C 330.118 216.106,330.413 215.957,330.415 215.864 C 330.416 215.772,331.064 215.409,331.854 215.058 C 332.643 214.707,333.290 214.324,333.290 214.208 C 333.290 214.091,333.448 213.996,333.642 213.996 C 333.836 213.996,334.266 213.761,334.598 213.473 C 334.930 213.185,335.301 212.950,335.423 212.950 C 335.545 212.950,335.647 212.802,335.650 212.623 C 335.652 212.443,336.266 212.017,337.014 211.676 C 337.761 211.335,339.244 210.393,340.308 209.583 C 341.373 208.773,342.907 207.672,343.718 207.137 C 345.462 205.987,345.952 205.645,346.715 205.045 C 350.627 201.967,352.323 200.578,354.088 199.006 C 357.261 196.179,366.039 187.354,367.151 185.873 C 367.691 185.154,368.691 183.976,369.373 183.257 C 370.055 182.538,370.836 181.596,371.108 181.164 C 371.381 180.733,371.673 180.320,371.757 180.249 C 371.842 180.177,372.722 178.882,373.713 177.371 C 374.704 175.860,375.777 174.300,376.099 173.904 C 376.420 173.508,377.029 172.508,377.451 171.681 C 377.873 170.853,378.471 169.765,378.781 169.261 C 379.090 168.757,379.485 168.022,379.657 167.626 C 379.830 167.230,380.063 166.906,380.175 166.906 C 380.287 166.906,380.379 166.774,380.379 166.613 C 380.379 166.452,380.951 165.127,381.650 163.670 C 382.349 162.213,383.130 160.491,383.386 159.843 C 383.642 159.196,384.071 158.167,384.339 157.557 C 384.607 156.947,384.827 156.342,384.827 156.213 C 384.827 156.084,385.003 155.642,385.217 155.229 C 385.432 154.817,385.609 154.272,385.610 154.019 C 385.611 153.765,385.724 153.353,385.863 153.103 C 386.255 152.392,387.333 147.434,387.809 144.147 C 387.986 142.923,388.285 141.640,388.472 141.293 C 389.220 139.913,389.090 119.917,388.325 118.732 C 388.200 118.537,387.958 117.377,387.789 116.154 C 387.383 113.226,386.940 110.915,386.660 110.268 C 386.536 109.980,386.356 109.274,386.261 108.698 C 386.166 108.123,385.996 107.534,385.884 107.390 C 385.772 107.247,385.597 106.673,385.497 106.116 C 385.396 105.558,385.218 104.911,385.100 104.677 C 384.861 104.200,384.065 102.238,383.389 100.458 C 383.143 99.810,382.836 99.104,382.705 98.888 C 382.575 98.672,382.402 98.319,382.321 98.103 C 382.239 97.888,382.063 97.534,381.928 97.319 C 381.794 97.103,381.611 96.750,381.521 96.534 C 380.917 95.080,379.475 92.151,379.202 91.825 C 379.021 91.609,378.435 90.608,377.899 89.601 C 376.068 86.161,369.551 76.851,368.514 76.194 C 368.343 76.086,367.592 75.212,366.847 74.252 C 365.403 72.393,357.644 64.517,355.256 62.485 C 354.470 61.816,353.279 60.750,352.610 60.116 C 351.941 59.482,350.840 58.558,350.164 58.062 C 349.488 57.567,348.505 56.796,347.979 56.349 C 346.717 55.276,343.283 52.845,343.029 52.845 C 342.919 52.845,342.243 52.332,341.526 51.706 C 339.935 50.315,337.385 48.659,336.834 48.659 C 336.611 48.659,336.429 48.538,336.429 48.389 C 336.429 48.241,336.223 48.044,335.971 47.951 C 335.719 47.858,335.043 47.420,334.467 46.978 C 333.316 46.094,333.071 45.947,330.177 44.412 C 329.083 43.832,328.003 43.197,327.775 43.000 C 327.548 42.803,327.224 42.642,327.056 42.642 C 326.887 42.642,326.750 42.544,326.750 42.423 C 326.750 42.303,325.719 41.700,324.460 41.084 C 321.985 39.872,317.756 37.849,316.289 37.175 C 315.788 36.945,315.238 36.627,315.068 36.469 C 314.898 36.312,313.719 35.746,312.448 35.213 C 311.177 34.679,309.666 33.993,309.091 33.687 C 307.645 32.920,307.406 32.805,306.213 32.313 C 305.638 32.075,304.931 31.772,304.644 31.639 C 303.816 31.255,299.172 29.564,298.943 29.563 C 298.829 29.562,297.985 29.211,297.067 28.782 C 294.797 27.720,286.896 25.114,285.948 25.114 C 285.672 25.114,285.373 24.997,285.284 24.853 C 285.196 24.709,284.862 24.591,284.542 24.591 C 284.223 24.591,283.730 24.433,283.446 24.240 C 283.162 24.047,282.459 23.762,281.884 23.608 C 281.308 23.453,279.778 23.033,278.483 22.675 C 277.188 22.317,275.673 21.953,275.117 21.866 C 274.560 21.778,274.012 21.649,273.898 21.579 C 273.785 21.509,273.004 21.339,272.163 21.202 C 269.393 20.751,267.107 20.212,266.769 19.931 C 266.586 19.779,265.791 19.572,265.003 19.472 C 264.216 19.372,263.453 19.200,263.309 19.092 C 263.165 18.983,262.287 18.808,261.358 18.702 C 260.428 18.597,259.487 18.411,259.265 18.289 C 259.043 18.167,257.979 17.940,256.900 17.785 C 255.821 17.629,253.878 17.325,252.583 17.108 C 249.388 16.572,245.002 16.002,243.503 15.927 C 242.820 15.893,242.215 15.722,242.147 15.544 C 242.018 15.208,241.319 15.113,235.448 14.633 C 233.506 14.473,231.681 14.240,231.393 14.114 C 230.887 13.892,226.105 13.564,216.612 13.102 C 211.181 12.837,192.855 12.845,186.920 13.114 M211.380 25.640 C 300.933 29.546,366.406 83.124,355.238 143.362 C 346.415 190.952,290.655 228.689,219.751 235.056 C 116.827 244.298,29.513 182.708,47.239 113.369 C 60.833 60.194,131.965 22.176,211.380 25.640 M196.212 35.005 C 195.567 35.053,194.920 35.186,194.773 35.301 C 194.626 35.416,194.078 35.588,193.555 35.682 C 192.019 35.958,187.770 38.267,185.329 40.151 C 184.085 41.111,182.286 42.317,181.331 42.833 C 179.178 43.994,177.016 45.733,176.026 47.098 C 175.613 47.669,175.167 48.136,175.035 48.136 C 174.903 48.136,174.417 48.514,173.955 48.976 C 173.324 49.607,172.781 49.865,171.776 50.010 C 169.367 50.358,165.474 51.144,165.160 51.346 C 164.990 51.455,162.989 51.618,160.712 51.707 C 158.436 51.797,156.447 51.968,156.294 52.088 C 156.141 52.208,155.343 52.385,154.521 52.482 C 153.699 52.578,152.964 52.758,152.888 52.882 C 152.811 53.005,152.079 53.114,151.260 53.122 C 150.441 53.131,149.241 53.243,148.594 53.372 C 147.946 53.501,146.710 53.735,145.847 53.892 C 144.984 54.049,144.096 54.275,143.875 54.394 C 143.653 54.514,142.960 54.698,142.334 54.804 C 139.010 55.366,131.589 62.697,131.589 65.419 C 131.589 65.564,131.425 65.943,131.225 66.262 C 131.025 66.580,130.779 67.430,130.678 68.149 C 130.577 68.869,130.403 69.575,130.292 69.719 C 130.028 70.060,129.645 78.603,129.731 82.211 C 129.771 83.882,129.697 85.023,129.547 85.023 C 129.409 85.023,129.221 85.229,129.130 85.481 C 129.039 85.733,128.553 86.645,128.050 87.508 C 127.124 89.096,124.417 94.528,124.218 95.196 C 124.112 95.551,121.122 97.307,118.770 98.396 C 113.065 101.037,112.827 101.214,109.693 105.125 C 108.616 106.469,107.507 107.797,107.229 108.075 C 103.762 111.542,102.896 124.203,105.719 130.150 C 106.313 131.400,106.789 132.186,107.083 132.402 C 107.202 132.489,107.365 133.078,107.446 133.710 C 107.526 134.342,107.678 134.977,107.782 135.121 C 107.887 135.265,108.053 135.736,108.151 136.167 C 108.406 137.282,109.374 139.669,110.009 140.746 C 110.305 141.249,110.692 141.956,110.868 142.315 C 111.043 142.675,111.451 143.381,111.774 143.885 C 112.097 144.388,112.638 145.242,112.976 145.782 C 113.314 146.321,113.696 146.763,113.826 146.763 C 113.955 146.763,114.061 146.915,114.061 147.102 C 114.061 148.155,117.890 151.273,121.218 152.932 C 123.268 153.954,123.909 154.642,124.120 156.051 C 124.216 156.691,124.394 157.276,124.516 157.352 C 124.639 157.427,124.819 158.077,124.918 158.797 C 125.017 159.516,125.195 160.164,125.312 160.237 C 125.430 160.309,125.609 160.869,125.710 161.479 C 125.811 162.090,125.977 162.708,126.079 162.852 C 126.605 163.590,126.880 165.617,126.880 168.750 C 126.880 170.665,126.992 172.594,127.128 173.036 C 127.264 173.478,127.492 174.604,127.635 175.540 C 128.056 178.302,128.498 180.360,128.732 180.654 C 128.852 180.805,129.029 181.423,129.126 182.027 C 129.223 182.632,129.404 183.126,129.530 183.126 C 129.655 183.126,129.758 183.318,129.758 183.552 C 129.758 185.677,134.316 192.345,137.722 195.201 C 140.423 197.467,141.641 198.131,143.623 198.422 C 144.683 198.577,146.425 199.244,146.763 199.624 C 146.883 199.760,148.471 200.335,151.079 201.189 C 152.339 201.601,159.663 201.647,160.166 201.246 C 160.726 200.800,163.203 200.681,163.537 201.085 C 163.699 201.280,164.006 201.439,164.221 201.439 C 164.435 201.439,165.156 201.887,165.824 202.434 C 166.491 202.981,168.189 203.990,169.597 204.676 C 172.246 205.966,173.985 207.486,177.109 211.237 C 178.919 213.411,181.990 216.612,182.266 216.612 C 182.401 216.612,182.772 216.889,183.090 217.228 C 183.408 217.566,184.341 218.171,185.163 218.572 C 185.985 218.973,186.847 219.392,187.077 219.504 C 187.308 219.616,188.073 219.791,188.778 219.893 C 189.482 219.996,190.177 220.167,190.320 220.276 C 190.867 220.685,194.145 221.060,197.194 221.060 C 199.023 221.060,200.430 221.170,200.523 221.321 C 200.740 221.672,209.201 221.672,209.418 221.321 C 209.507 221.177,210.257 221.060,211.086 221.060 C 212.677 221.060,215.342 220.664,216.220 220.298 C 216.746 220.079,219.387 218.797,220.305 218.316 C 220.576 218.174,220.798 217.968,220.798 217.858 C 220.798 217.748,220.956 217.659,221.150 217.659 C 221.343 217.659,221.715 217.423,221.975 217.135 C 222.236 216.848,222.601 216.612,222.788 216.612 C 222.974 216.612,223.221 216.464,223.336 216.283 C 223.451 216.103,224.112 215.543,224.805 215.041 C 226.770 213.615,230.216 209.989,230.216 209.346 C 230.216 209.194,230.315 209.030,230.435 208.982 C 230.792 208.840,234.349 204.040,234.798 203.094 C 235.126 202.404,235.367 202.224,235.968 202.224 C 236.384 202.224,236.798 202.106,236.887 201.962 C 237.089 201.635,241.904 201.613,242.105 201.939 C 242.186 202.070,243.281 202.260,244.540 202.362 C 245.798 202.464,246.966 202.658,247.135 202.794 C 247.744 203.281,257.218 202.604,258.600 201.975 C 258.888 201.844,259.700 201.660,260.405 201.566 C 261.702 201.393,261.840 201.347,263.396 200.567 C 263.875 200.327,264.383 200.131,264.525 200.131 C 264.667 200.131,265.779 199.542,266.997 198.823 C 268.215 198.103,269.329 197.515,269.473 197.515 C 269.617 197.515,269.803 197.338,269.886 197.122 C 269.969 196.906,270.204 196.730,270.408 196.730 C 271.812 196.730,276.606 190.490,277.443 187.574 C 277.547 187.214,277.732 186.793,277.855 186.638 C 278.141 186.279,278.834 183.277,279.180 180.903 C 279.496 178.731,279.316 169.931,278.946 169.459 C 278.804 169.278,278.541 168.012,278.361 166.645 C 278.181 165.278,277.932 164.034,277.808 163.881 C 277.684 163.727,277.507 162.960,277.415 162.175 L 277.248 160.748 280.481 157.802 C 284.975 153.707,285.935 152.758,286.985 151.375 C 287.930 150.129,292.085 142.267,292.534 140.876 C 292.773 140.135,293.086 139.369,293.766 137.868 C 294.543 136.153,295.132 129.684,294.611 128.598 C 294.468 128.301,294.290 127.290,294.215 126.351 C 294.140 125.413,293.896 124.294,293.673 123.866 C 293.450 123.438,293.266 122.905,293.265 122.681 C 293.264 122.458,293.166 122.164,293.046 122.027 C 292.661 121.588,292.217 119.660,292.217 118.429 C 292.217 117.770,292.115 117.169,291.991 117.092 C 291.866 117.015,291.700 116.473,291.622 115.887 C 291.297 113.465,288.376 108.379,285.751 105.665 C 284.415 104.285,283.322 103.065,283.322 102.954 C 283.322 101.398,277.800 97.759,274.935 97.427 C 272.208 97.111,270.930 93.365,271.817 88.293 C 272.415 84.875,272.653 83.798,272.940 83.217 C 273.388 82.309,273.373 71.568,272.923 71.118 C 272.744 70.938,272.596 70.491,272.595 70.124 C 272.594 69.757,272.416 69.118,272.200 68.703 C 271.984 68.288,271.734 67.494,271.645 66.937 C 271.556 66.381,271.393 65.925,271.283 65.925 C 271.173 65.925,271.005 65.602,270.909 65.206 C 270.362 62.953,267.992 60.044,265.079 58.052 C 263.490 56.965,257.986 54.154,257.443 54.151 C 257.216 54.151,256.724 53.990,256.350 53.794 C 255.975 53.599,255.092 53.353,254.388 53.248 C 253.683 53.143,252.941 52.922,252.740 52.755 C 252.491 52.550,250.297 52.423,245.938 52.361 C 242.399 52.311,239.385 52.176,239.241 52.060 C 239.097 51.944,238.273 51.764,237.410 51.661 C 236.547 51.557,235.723 51.385,235.579 51.277 C 235.435 51.170,234.670 50.934,233.878 50.752 C 233.087 50.571,232.322 50.330,232.178 50.218 C 232.034 50.106,231.475 49.932,230.935 49.831 C 230.396 49.730,229.954 49.543,229.954 49.415 C 229.954 49.287,229.766 49.182,229.536 49.182 C 228.737 49.182,227.412 48.370,227.062 47.666 C 226.653 46.842,224.984 44.997,224.648 44.997 C 224.521 44.997,223.915 44.585,223.300 44.081 C 222.686 43.578,222.094 43.165,221.986 43.165 C 221.877 43.165,221.359 42.842,220.835 42.446 C 219.536 41.467,218.962 41.108,218.116 40.744 C 217.721 40.574,217.397 40.352,217.397 40.251 C 217.397 40.150,217.044 39.990,216.612 39.895 C 216.181 39.801,215.827 39.625,215.827 39.505 C 215.827 39.385,215.357 39.208,214.782 39.111 C 214.207 39.014,213.671 38.827,213.590 38.695 C 213.508 38.564,213.184 38.456,212.869 38.455 C 212.554 38.454,211.980 38.289,211.594 38.087 C 211.208 37.886,210.531 37.642,210.090 37.545 C 209.648 37.448,209.287 37.276,209.287 37.163 C 209.287 37.051,208.577 36.808,207.710 36.624 C 206.842 36.440,206.075 36.196,206.005 36.083 C 205.935 35.970,205.203 35.802,204.378 35.711 C 203.553 35.619,202.642 35.443,202.354 35.319 C 201.766 35.066,197.999 34.873,196.212 35.005 M207.848 41.241 C 208.136 41.394,209.637 42.141,211.184 42.901 C 212.731 43.660,213.996 44.384,213.996 44.509 C 213.996 44.633,214.161 44.735,214.362 44.735 C 214.786 44.735,219.228 49.097,219.228 49.513 C 219.228 49.666,219.935 50.586,220.798 51.558 C 221.661 52.529,222.368 53.455,222.368 53.616 C 222.368 53.776,222.544 53.976,222.760 54.058 C 222.976 54.141,223.152 54.357,223.152 54.538 C 223.152 54.719,223.388 55.167,223.676 55.532 C 223.963 55.898,224.199 56.437,224.199 56.730 C 224.199 57.022,224.317 57.334,224.460 57.423 C 224.881 57.683,224.778 60.060,224.330 60.432 C 224.114 60.611,223.937 60.938,223.937 61.158 C 223.937 61.849,222.646 63.290,221.508 63.871 C 220.908 64.177,219.769 64.906,218.975 65.492 C 217.164 66.831,213.319 68.164,210.174 68.545 C 203.801 69.318,193.543 69.505,192.735 68.865 C 192.558 68.725,191.766 68.461,190.974 68.280 C 190.183 68.098,189.418 67.859,189.274 67.747 C 189.130 67.635,188.453 67.461,187.770 67.359 C 187.086 67.257,186.527 67.070,186.527 66.942 C 186.527 66.815,186.295 66.710,186.012 66.710 C 185.729 66.710,185.052 66.485,184.508 66.210 C 183.964 65.936,182.854 65.403,182.042 65.027 C 180.281 64.213,179.252 63.442,178.917 62.686 C 178.782 62.382,178.446 61.779,178.171 61.347 C 177.474 60.253,177.515 59.682,178.438 57.638 C 178.882 56.656,179.430 55.441,179.658 54.938 C 180.021 54.133,180.920 52.697,181.295 52.322 C 181.776 51.841,183.388 49.714,183.388 49.560 C 183.388 48.616,188.730 43.165,189.656 43.165 C 189.806 43.165,189.928 43.057,189.928 42.925 C 189.928 42.792,190.281 42.606,190.713 42.511 C 191.145 42.417,191.498 42.246,191.498 42.133 C 191.498 41.945,192.277 41.728,195.291 41.075 C 196.758 40.757,207.198 40.895,207.848 41.241 M156.906 56.626 C 159.811 56.867,162.410 57.851,166.348 60.199 C 167.407 60.830,168.515 61.485,168.809 61.654 C 173.085 64.103,173.201 67.895,169.130 72.124 C 168.411 72.872,166.939 74.520,165.860 75.787 C 163.934 78.048,160.904 80.837,160.374 80.837 C 160.226 80.837,160.105 80.955,160.105 81.099 C 160.105 81.243,159.949 81.360,159.759 81.360 C 159.569 81.360,158.951 81.756,158.386 82.239 C 157.030 83.397,153.836 85.808,153.658 85.808 C 153.580 85.808,152.910 86.311,152.167 86.925 C 149.161 89.413,146.887 90.674,144.938 90.933 C 144.208 91.030,143.548 91.211,143.471 91.336 C 143.394 91.461,142.749 91.563,142.038 91.563 C 141.108 91.563,140.746 91.665,140.746 91.928 C 140.746 92.265,140.216 92.610,139.698 92.610 C 139.152 92.610,137.801 91.125,137.231 89.900 C 136.365 88.038,136.248 87.708,135.875 86.069 C 135.696 85.278,135.409 84.042,135.240 83.322 C 134.691 80.999,134.763 69.748,135.337 68.018 C 136.619 64.157,139.398 60.287,141.584 59.319 C 141.986 59.141,142.315 58.907,142.315 58.798 C 142.315 58.689,142.429 58.600,142.569 58.600 C 142.709 58.600,143.466 58.306,144.253 57.946 C 145.039 57.587,145.874 57.292,146.109 57.292 C 146.344 57.292,146.789 57.157,147.098 56.991 C 147.408 56.825,148.901 56.611,150.416 56.515 C 153.120 56.343,153.594 56.351,156.906 56.626 M254.807 58.834 C 257.411 59.709,263.179 62.465,263.179 62.834 C 263.179 62.952,263.335 63.048,263.525 63.048 C 264.279 63.048,265.636 65.184,265.936 66.841 C 266.039 67.417,266.241 68.034,266.383 68.214 C 266.526 68.393,266.704 70.604,266.780 73.127 C 266.855 75.650,267.018 77.776,267.141 77.852 C 267.453 78.045,267.421 79.986,267.103 80.183 C 266.959 80.272,266.841 80.978,266.841 81.753 C 266.841 82.527,266.959 83.234,267.103 83.322 C 267.421 83.519,267.455 87.552,267.140 87.747 C 267.017 87.823,266.848 88.448,266.764 89.136 C 266.473 91.537,265.058 94.021,263.915 94.135 C 263.439 94.183,262.913 94.336,262.745 94.475 C 262.547 94.639,262.381 94.632,262.271 94.454 C 262.005 94.023,261.683 94.131,261.533 94.701 C 261.256 95.764,260.507 95.614,257.423 93.881 C 256.632 93.437,255.925 92.996,255.853 92.903 C 255.782 92.810,255.065 92.417,254.261 92.030 C 253.457 91.644,252.648 91.145,252.463 90.922 C 252.278 90.699,252.013 90.517,251.874 90.517 C 251.734 90.517,251.000 89.987,250.242 89.339 C 249.485 88.692,248.782 88.162,248.681 88.162 C 248.580 88.162,248.004 87.708,247.401 87.153 C 246.798 86.598,245.935 85.803,245.484 85.387 C 244.273 84.271,241.796 81.443,240.157 79.304 C 237.366 75.662,236.622 74.669,236.303 74.159 C 234.950 71.991,234.140 70.569,234.140 70.359 C 234.140 70.223,234.038 70.111,233.912 70.111 C 233.787 70.111,233.533 69.552,233.349 68.869 C 233.164 68.185,232.923 67.508,232.815 67.364 C 232.706 67.220,232.530 66.635,232.423 66.063 C 232.316 65.491,232.070 64.864,231.876 64.671 C 231.181 63.975,232.686 61.478,233.801 61.478 C 233.987 61.478,234.140 61.370,234.140 61.237 C 234.140 61.105,234.493 60.919,234.925 60.824 C 235.356 60.729,235.710 60.551,235.710 60.427 C 235.710 60.303,236.241 60.122,236.890 60.025 C 237.539 59.928,238.129 59.754,238.199 59.639 C 238.270 59.525,238.828 59.355,239.439 59.262 C 240.050 59.170,240.785 58.993,241.073 58.870 C 243.186 57.964,252.148 57.941,254.807 58.834 M207.423 75.279 C 207.513 75.418,208.163 75.617,208.868 75.721 C 209.572 75.825,210.338 76.006,210.568 76.123 C 210.799 76.240,211.871 76.668,212.950 77.074 C 214.029 77.481,214.971 77.878,215.043 77.957 C 215.114 78.036,215.468 78.250,215.827 78.433 C 218.026 79.549,219.276 80.729,220.175 82.538 C 220.533 83.257,221.006 83.984,221.226 84.152 C 221.447 84.321,221.692 84.942,221.771 85.532 C 221.850 86.122,222.017 86.668,222.141 86.745 C 222.416 86.915,222.445 89.306,222.176 89.575 C 222.070 89.680,221.847 90.200,221.679 90.730 C 221.119 92.501,219.541 96.075,218.989 96.821 C 218.689 97.227,218.443 97.770,218.442 98.027 C 218.441 98.285,218.275 98.812,218.074 99.198 C 217.873 99.584,217.629 100.260,217.532 100.702 C 217.435 101.143,217.273 101.504,217.172 101.504 C 217.071 101.504,216.844 101.828,216.667 102.224 C 216.246 103.164,215.854 103.792,214.977 104.934 C 214.581 105.449,214.258 106.014,214.258 106.189 C 214.258 109.472,208.698 113.505,204.136 113.532 C 203.533 113.535,202.967 113.656,202.878 113.800 C 202.680 114.119,201.523 114.148,201.332 113.838 C 201.256 113.715,200.257 113.537,199.113 113.441 C 197.264 113.287,194.701 112.661,193.198 111.997 C 188.931 110.110,184.473 107.609,184.216 106.958 C 184.168 106.836,183.985 106.736,183.810 106.736 C 183.335 106.736,181.988 105.215,181.145 103.728 C 180.738 103.009,180.320 102.360,180.216 102.286 C 180.113 102.213,179.947 101.830,179.848 101.436 C 179.750 101.042,179.574 100.719,179.458 100.719 C 179.343 100.719,179.166 100.219,179.065 99.608 C 178.964 98.996,178.792 98.378,178.682 98.234 C 178.103 97.473,176.586 94.359,176.586 93.933 C 176.586 93.661,176.474 93.399,176.337 93.351 C 175.847 93.179,175.705 89.886,176.145 88.923 C 176.369 88.433,176.670 87.584,176.813 87.038 C 177.341 85.025,179.847 81.884,180.925 81.884 C 181.102 81.884,181.678 81.281,182.207 80.546 C 182.736 79.810,183.394 79.148,183.671 79.076 C 183.947 79.004,184.173 78.856,184.173 78.747 C 184.173 78.426,187.874 76.716,189.012 76.511 C 189.588 76.407,190.191 76.218,190.352 76.090 C 190.513 75.963,191.631 75.737,192.837 75.587 C 194.043 75.438,195.795 75.215,196.730 75.091 C 198.925 74.801,207.208 74.946,207.423 75.279 M129.549 100.441 C 129.880 100.576,130.565 100.753,131.071 100.834 C 132.772 101.107,135.775 104.791,135.775 106.603 C 135.775 107.131,136.734 109.268,137.062 109.470 C 137.195 109.553,137.386 110.001,137.486 110.467 C 137.585 110.933,137.774 111.448,137.905 111.611 C 138.036 111.775,138.217 112.717,138.307 113.704 C 138.397 114.692,138.583 115.574,138.721 115.664 C 139.080 115.899,139.058 129.519,138.698 130.168 C 138.543 130.446,138.344 131.349,138.255 132.174 C 138.166 132.999,137.983 133.742,137.850 133.824 C 137.716 133.907,137.606 134.151,137.606 134.366 C 137.606 134.706,137.339 135.396,136.299 137.737 C 134.317 142.198,132.020 145.551,130.739 145.851 C 130.343 145.943,130.020 146.128,130.020 146.260 C 130.020 146.565,128.529 146.579,128.342 146.276 C 128.265 146.152,127.672 145.978,127.024 145.889 C 126.376 145.800,125.637 145.617,125.382 145.482 C 125.127 145.347,124.271 144.919,123.479 144.531 C 122.688 144.143,121.350 143.368,120.506 142.809 C 119.663 142.249,118.889 141.792,118.787 141.792 C 118.391 141.792,116.151 139.418,115.776 138.600 C 115.346 137.663,114.810 136.767,114.555 136.560 C 114.466 136.488,114.303 136.135,114.193 135.775 C 114.083 135.415,113.772 134.807,113.502 134.424 C 112.693 133.275,110.963 129.755,110.775 128.877 C 110.679 128.426,110.487 127.917,110.349 127.745 C 109.705 126.944,109.686 116.954,110.327 115.762 C 110.481 115.474,111.104 114.179,111.711 112.884 C 112.318 111.589,113.095 110.155,113.438 109.697 C 113.781 109.239,114.061 108.751,114.061 108.612 C 114.061 108.188,117.610 104.531,118.815 103.713 C 119.438 103.291,120.007 102.885,120.078 102.813 C 120.704 102.184,123.259 100.981,124.334 100.809 C 124.877 100.722,125.385 100.548,125.463 100.423 C 125.651 100.119,128.793 100.133,129.549 100.441 M271.786 103.603 C 272.016 103.724,272.793 103.954,273.512 104.114 C 274.722 104.382,278.048 105.855,278.354 106.258 C 278.428 106.354,278.810 106.514,279.205 106.613 C 279.599 106.712,279.922 106.898,279.922 107.026 C 279.922 107.155,280.060 107.260,280.228 107.260 C 280.397 107.260,281.192 107.822,281.994 108.510 C 282.797 109.198,283.777 109.966,284.173 110.217 C 284.568 110.467,284.892 110.850,284.892 111.067 C 284.892 111.284,285.069 111.530,285.284 111.612 C 285.500 111.695,285.677 111.862,285.677 111.983 C 285.677 112.105,286.031 112.728,286.463 113.369 C 286.896 114.010,287.326 114.928,287.420 115.410 C 287.514 115.891,287.690 116.351,287.811 116.431 C 288.033 116.578,288.617 119.755,289.121 123.554 C 289.412 125.748,289.190 128.577,288.451 132.112 C 288.053 134.015,287.867 134.564,287.092 136.123 C 286.889 136.531,286.723 136.989,286.723 137.141 C 286.723 137.523,285.592 139.810,285.350 139.917 C 285.242 139.965,285.154 140.107,285.154 140.233 C 285.154 142.138,279.371 146.714,274.559 148.618 C 270.516 150.217,266.578 149.324,265.908 146.656 C 265.815 146.283,265.646 145.978,265.533 145.978 C 265.420 145.978,265.247 145.656,265.149 145.263 C 265.050 144.870,264.466 143.781,263.851 142.843 C 262.872 141.352,262.067 139.810,261.323 137.999 C 261.204 137.711,260.979 136.946,260.822 136.298 C 260.665 135.651,260.462 134.944,260.371 134.729 C 260.219 134.369,260.084 133.817,259.282 130.281 C 258.957 128.847,258.936 120.924,259.253 119.294 C 259.701 116.987,260.098 115.497,260.328 115.252 C 260.457 115.115,260.562 114.795,260.562 114.540 C 260.562 114.101,261.623 110.599,262.094 109.483 C 263.601 105.913,265.202 103.451,266.154 103.240 C 266.957 103.062,271.293 103.341,271.786 103.603 M241.315 104.111 C 242.198 104.562,243.475 104.959,244.372 105.060 C 245.219 105.156,245.912 105.337,245.912 105.462 C 245.912 105.587,246.177 105.691,246.501 105.693 C 247.030 105.696,248.560 106.485,250.757 107.889 C 251.186 108.163,251.949 108.987,252.453 109.720 L 253.368 111.053 253.368 118.116 C 253.368 123.520,253.286 125.324,253.020 125.792 C 252.827 126.129,252.568 127.851,252.442 129.632 C 252.239 132.502,251.831 134.542,251.135 136.167 C 251.012 136.455,250.663 137.279,250.360 137.999 C 249.462 140.127,249.245 140.542,248.223 142.084 C 247.350 143.400,246.721 144.030,244.997 145.317 C 244.709 145.532,244.161 145.945,243.778 146.235 C 243.396 146.525,242.964 146.763,242.819 146.763 C 242.674 146.763,242.510 146.896,242.456 147.060 C 242.399 147.232,241.506 147.412,240.341 147.487 C 239.233 147.558,238.326 147.718,238.326 147.843 C 238.326 149.072,232.478 146.865,231.829 145.391 C 231.781 145.282,231.601 145.193,231.428 145.193 C 231.090 145.193,228.123 142.299,228.123 141.970 C 228.123 141.860,228.006 141.628,227.863 141.454 C 227.720 141.280,227.191 140.608,226.687 139.961 C 226.183 139.313,225.607 138.607,225.408 138.391 C 224.773 137.703,222.732 134.382,222.111 133.028 C 221.147 130.924,221.097 130.757,220.914 128.973 C 220.818 128.038,220.632 127.139,220.500 126.976 C 220.105 126.486,219.957 123.458,220.246 121.779 C 220.395 120.916,220.649 119.444,220.811 118.509 C 220.973 117.574,221.213 116.697,221.344 116.560 C 221.475 116.423,221.583 116.094,221.583 115.829 C 221.583 114.610,224.230 110.753,226.278 108.989 C 226.630 108.685,227.511 107.855,228.236 107.145 C 229.578 105.830,232.503 104.132,233.473 104.106 C 233.768 104.097,234.421 103.935,234.925 103.744 C 236.705 103.071,239.607 103.237,241.315 104.111 M165.693 109.604 C 165.843 109.754,166.197 109.876,166.480 109.876 C 167.270 109.876,172.960 112.756,174.455 113.913 C 176.158 115.231,178.137 117.383,178.722 118.553 C 180.188 121.484,181.033 123.415,181.033 123.832 C 181.033 124.070,181.142 124.264,181.274 124.264 C 181.407 124.264,181.597 124.647,181.697 125.114 C 181.797 125.582,182.012 126.130,182.175 126.332 C 182.605 126.864,182.574 135.124,182.141 135.557 C 181.963 135.735,181.817 136.062,181.817 136.285 C 181.816 136.508,181.639 137.028,181.424 137.440 C 181.209 137.852,181.033 138.293,181.033 138.420 C 181.033 140.381,177.129 144.972,174.187 146.471 C 172.999 147.076,171.760 148.049,170.272 149.545 C 169.075 150.748,167.946 151.733,167.762 151.733 C 167.579 151.733,167.430 151.842,167.430 151.974 C 167.430 152.106,167.077 152.292,166.645 152.387 C 166.213 152.482,165.860 152.668,165.860 152.800 C 165.860 153.104,161.826 153.119,161.213 152.818 C 160.963 152.695,160.288 152.377,159.712 152.111 C 159.137 151.845,158.175 151.239,157.575 150.765 C 156.976 150.290,156.375 149.902,156.240 149.902 C 154.992 149.902,149.762 143.085,149.261 140.806 C 149.165 140.369,148.858 139.563,148.579 139.015 C 148.299 138.467,148.071 137.877,148.071 137.704 C 148.071 137.530,147.982 137.349,147.874 137.301 C 147.767 137.253,147.405 136.508,147.071 135.644 C 146.738 134.781,146.363 133.883,146.239 133.649 C 146.115 133.415,145.931 132.767,145.831 132.210 C 145.730 131.653,145.538 131.058,145.403 130.888 C 145.125 130.536,145.275 126.181,145.671 123.151 C 145.921 121.237,146.446 119.471,147.209 117.986 C 147.393 117.626,147.545 117.184,147.546 117.005 C 147.547 116.825,147.656 116.678,147.788 116.678 C 147.921 116.678,148.106 116.328,148.200 115.900 C 148.396 115.006,150.103 112.589,150.687 112.377 C 150.903 112.299,151.570 111.955,152.169 111.612 C 152.769 111.269,153.711 110.904,154.262 110.801 C 154.814 110.698,155.408 110.496,155.582 110.352 C 155.757 110.207,156.610 110.025,157.479 109.946 C 158.347 109.868,159.058 109.709,159.058 109.594 C 159.058 109.073,165.172 109.083,165.693 109.604 M209.626 138.276 C 210.171 138.345,210.819 138.499,211.064 138.619 C 211.310 138.739,212.099 139.119,212.819 139.464 C 215.390 140.697,217.581 142.655,219.816 145.716 C 220.728 146.964,221.844 149.105,221.844 149.604 C 221.844 149.768,221.957 149.902,222.094 149.902 C 222.231 149.902,222.421 150.314,222.516 150.818 C 222.610 151.321,222.782 151.733,222.897 151.733 C 223.012 151.733,223.186 152.203,223.283 152.778 C 223.380 153.353,223.560 153.886,223.683 153.962 C 223.806 154.038,223.987 154.656,224.086 155.336 C 224.184 156.016,224.397 156.738,224.559 156.940 C 224.961 157.442,224.963 164.762,224.561 165.019 C 224.401 165.122,224.183 165.500,224.078 165.860 C 222.806 170.218,217.143 175.801,213.995 175.801 C 213.622 175.801,213.204 175.913,213.067 176.049 C 212.541 176.575,207.116 176.884,203.114 176.617 C 199.372 176.367,198.165 176.100,196.428 175.139 C 196.046 174.928,195.546 174.755,195.316 174.755 C 195.086 174.755,194.899 174.646,194.899 174.514 C 194.899 174.381,194.545 174.196,194.114 174.101 C 193.682 174.006,193.329 173.820,193.329 173.688 C 193.329 173.555,193.195 173.447,193.030 173.447 C 191.991 173.447,187.574 168.123,187.574 166.871 C 187.574 166.718,187.414 166.222,187.218 165.769 C 187.023 165.315,186.600 164.061,186.279 162.982 C 185.957 161.903,185.559 160.667,185.394 160.235 C 184.996 159.199,185.023 155.225,185.431 154.818 C 185.602 154.646,185.742 154.337,185.742 154.130 C 185.742 153.326,187.846 149.423,188.943 148.191 C 189.579 147.477,190.325 146.484,190.602 145.983 C 190.879 145.482,191.252 144.914,191.432 144.721 C 191.612 144.528,191.759 144.271,191.759 144.149 C 191.759 143.771,194.918 140.746,195.312 140.746 C 195.516 140.746,195.683 140.628,195.683 140.484 C 195.683 140.340,195.807 140.222,195.958 140.222 C 196.109 140.222,196.715 139.989,197.306 139.703 C 197.897 139.418,198.803 139.108,199.321 139.015 C 199.838 138.922,200.405 138.732,200.581 138.593 C 201.255 138.059,206.458 137.876,209.626 138.276 M271.601 159.336 C 271.992 159.805,272.389 160.552,272.484 160.996 C 272.579 161.441,272.757 161.931,272.880 162.084 C 273.003 162.237,273.175 163.061,273.263 163.915 C 273.350 164.769,273.544 165.719,273.692 166.027 C 273.844 166.343,273.888 167.141,273.792 167.858 C 273.699 168.558,273.528 171.166,273.411 173.655 C 273.281 176.449,273.084 178.296,272.898 178.482 C 272.732 178.648,272.592 178.966,272.588 179.189 C 272.583 179.412,272.351 180.065,272.073 180.641 C 271.795 181.216,271.564 181.782,271.559 181.897 C 271.548 182.146,268.814 187.742,268.344 188.475 C 267.677 189.516,267.450 189.785,265.421 191.925 C 264.281 193.129,263.192 194.114,263.001 194.114 C 262.811 194.114,262.655 194.232,262.655 194.375 C 262.655 194.519,262.508 194.640,262.328 194.643 C 262.148 194.646,261.354 194.999,260.562 195.427 C 259.771 195.855,258.476 196.505,257.685 196.870 C 256.893 197.235,256.044 197.646,255.797 197.783 C 254.317 198.602,246.730 199.222,246.084 198.576 C 245.932 198.424,245.566 198.299,245.271 198.299 C 243.978 198.298,241.268 194.757,240.848 192.518 C 240.742 191.956,240.310 191.244,239.742 190.696 C 238.063 189.078,236.778 184.937,237.766 184.326 C 237.890 184.250,238.061 183.673,238.148 183.045 C 238.400 181.202,240.077 178.214,241.848 176.454 C 244.327 173.988,246.786 171.724,247.273 171.459 C 247.517 171.326,249.244 169.776,251.110 168.015 C 252.976 166.254,254.579 164.814,254.673 164.814 C 254.766 164.814,255.217 164.531,255.675 164.186 C 256.557 163.522,261.557 160.889,261.937 160.889 C 262.138 160.889,262.884 160.582,265.402 159.462 C 267.889 158.356,268.193 158.281,269.716 158.396 C 270.664 158.468,271.027 158.649,271.601 159.336 M148.183 160.337 C 148.262 160.464,148.721 160.643,149.204 160.733 C 149.955 160.874,152.276 161.950,154.263 163.080 C 158.182 165.306,162.321 169.966,164.865 175.016 C 165.481 176.239,166.065 177.300,166.163 177.373 C 166.261 177.447,166.429 177.859,166.535 178.289 C 166.641 178.719,166.878 179.307,167.061 179.595 C 167.245 179.882,167.477 180.856,167.578 181.759 C 167.678 182.661,167.862 183.463,167.987 183.540 C 168.376 183.780,168.263 191.092,167.858 191.934 C 167.662 192.342,167.221 193.255,166.877 193.963 C 165.938 195.901,164.425 196.119,163.427 194.461 C 163.142 193.988,162.744 194.023,161.474 194.637 C 160.879 194.925,160.216 195.160,160.002 195.160 C 159.788 195.160,159.544 195.271,159.460 195.407 C 159.376 195.542,158.779 195.732,158.133 195.829 C 157.487 195.926,156.895 196.110,156.816 196.237 C 156.387 196.931,150.039 196.332,148.324 195.436 C 148.103 195.321,147.514 195.144,147.016 195.042 C 144.353 194.499,139.604 191.079,138.345 188.798 C 136.935 186.242,135.240 182.515,134.992 181.426 C 134.828 180.706,134.599 179.937,134.483 179.717 C 134.367 179.496,134.184 178.908,134.078 178.409 C 133.971 177.910,133.787 177.381,133.669 177.234 C 133.424 176.928,132.919 172.389,132.728 168.771 C 132.600 166.354,133.165 163.244,133.732 163.244 C 133.848 163.244,133.944 163.086,133.944 162.892 C 133.944 162.342,134.806 161.697,135.792 161.510 C 136.286 161.416,136.811 161.245,136.959 161.131 C 137.106 161.017,137.842 160.842,138.594 160.742 C 139.346 160.642,139.961 160.458,139.961 160.333 C 139.961 160.032,147.997 160.036,148.183 160.337 M207.825 183.611 C 207.901 183.734,209.051 183.917,210.380 184.017 C 211.710 184.118,212.920 184.298,213.070 184.418 C 213.220 184.538,213.856 184.722,214.484 184.825 C 215.112 184.929,216.172 185.246,216.839 185.530 C 218.558 186.262,221.428 187.675,221.583 187.865 C 221.655 187.954,222.008 188.117,222.368 188.228 C 222.727 188.338,223.080 188.501,223.152 188.590 C 223.224 188.678,223.754 188.983,224.330 189.267 C 224.905 189.551,225.740 190.051,226.186 190.379 C 226.631 190.707,227.076 190.974,227.175 190.974 C 228.184 190.974,229.876 194.383,229.439 195.533 C 229.291 195.922,229.169 196.539,229.169 196.904 C 229.169 197.514,228.947 198.147,227.991 200.262 C 227.795 200.693,227.552 201.339,227.450 201.697 C 227.274 202.311,226.859 203.032,225.266 205.489 C 224.053 207.361,222.701 208.852,221.177 209.999 C 220.753 210.318,220.093 210.818,219.710 211.110 C 219.328 211.403,218.886 211.642,218.729 211.642 C 218.572 211.642,218.443 211.752,218.443 211.887 C 218.443 212.178,214.989 213.887,213.865 214.151 C 213.434 214.253,212.848 214.495,212.564 214.689 C 212.281 214.883,211.787 215.043,211.468 215.043 C 211.149 215.043,210.823 215.147,210.745 215.274 C 210.666 215.401,210.041 215.589,209.356 215.691 C 208.671 215.793,207.969 215.993,207.796 216.135 C 207.326 216.521,200.881 216.687,198.038 216.386 C 192.944 215.847,190.851 215.157,188.308 213.178 C 187.777 212.765,187.250 212.426,187.136 212.426 C 186.918 212.426,182.603 208.053,182.603 207.832 C 182.603 207.760,182.162 207.124,181.622 206.417 C 179.674 203.865,179.018 202.847,178.167 201.046 C 177.690 200.039,177.199 199.011,177.074 198.761 C 176.374 197.357,177.002 195.656,178.626 194.558 C 179.939 193.671,182.055 191.581,182.923 190.314 C 183.571 189.367,185.820 187.377,187.031 186.678 C 188.895 185.603,190.320 184.958,191.167 184.805 C 191.709 184.707,192.269 184.536,192.413 184.423 C 192.557 184.311,193.649 184.134,194.839 184.031 C 196.029 183.927,197.066 183.740,197.143 183.615 C 197.326 183.321,207.643 183.317,207.825 183.611 " stroke="none" fill="#242423" fill-rule="evenodd"></path></g></svg>